<?xml version="1.0" encoding="UTF-8"?>
<svg version="1.1" xmlns="http://www.w3.org/2000/svg" width="32" height="32">
<path d="M0 0 C10.56 0 21.12 0 32 0 C32 10.56 32 21.12 32 32 C21.44 32 10.88 32 0 32 C0 21.44 0 10.88 0 0 Z " fill="#121721" transform="translate(0,0)"/>
<path d="M0 0 C5 0 5 0 7.3125 2 C8.1478125 2.99 8.1478125 2.99 9 4 C9.66 3.01 10.32 2.02 11 1 C11.99 1.33 12.98 1.66 14 2 C13.25 7.75 13.25 7.75 11 10 C7.875 10.125 7.875 10.125 5 10 C3.35 6.7 1.7 3.4 0 0 Z " fill="#1EC966" transform="translate(4,11)"/>
<path d="M0 0 C1.65 0 3.3 0 5 0 C4.29445932 3.66881155 2.72264494 6.70450534 1 10 C-0.98 10 -2.96 10 -5 10 C-3.35 6.7 -1.7 3.4 0 0 Z " fill="#1EC463" transform="translate(22,11)"/>
<path d="M0 0 C0.99 0.33 1.98 0.66 3 1 C2.67 2.98 2.34 4.96 2 7 C0.68 7 -0.64 7 -2 7 C-2.33 6.01 -2.66 5.02 -3 4 C-1.5625 1.8125 -1.5625 1.8125 0 0 Z " fill="#148644" transform="translate(15,12)"/>
</svg>
